<svg xmlns="http://www.w3.org/2000/svg" style="display: none;">

  <symbol id="icon-nodeJs" viewBox="0 0 128 128">
    <path  d="M112.771 30.334l-44.097-25.605c-2.781-1.584-6.402-1.584-9.205 0l-44.568 25.605c-2.87 1.651-4.901 4.754-4.901 8.073v51.142c0 3.319 2.084 6.423 4.954 8.083l11.775 6.688c5.628 2.772 7.617 2.772 10.178 2.772 8.333 0 13.093-5.039 13.093-13.828v-50.49c0-.713-.371-1.774-1.071-1.774h-5.623c-.712 0-2.306 1.061-2.306 1.773v50.49c0 3.896-3.524 7.773-10.11 4.48l-12.167-7.013c-.424-.23-.723-.693-.723-1.181v-51.142c0-.482.555-.966.982-1.213l44.424-25.561c.415-.235 1.025-.235 1.439 0l43.882 25.555c.42.253.272.722.272 1.219v51.142c0 .488.183.963-.232 1.198l-44.086 25.576c-.378.227-.847.227-1.261 0l-11.307-6.749c-.341-.198-.746-.269-1.073-.086-3.146 1.783-3.726 2.02-6.677 3.043-.726.253-1.797.692.41 1.929l14.798 8.754c1.417.82 3.027 1.246 4.647 1.246 1.642 0 3.25-.426 4.667-1.246l43.885-25.582c2.87-1.672 4.23-4.764 4.23-8.083v-51.142c0-3.319-1.36-6.414-4.229-8.073zM77.91 81.445c-11.726 0-14.309-3.235-15.17-9.066-.1-.628-.633-1.379-1.272-1.379h-5.731c-.709 0-1.279.86-1.279 1.566 0 7.466 4.059 16.512 23.453 16.512 14.039 0 22.088-5.455 22.088-15.109 0-9.572-6.467-12.084-20.082-13.886-13.762-1.819-15.16-2.738-15.16-5.962 0-2.658 1.184-6.203 11.374-6.203 9.105 0 12.461 1.954 13.842 8.091.118.577.645.991 1.24.991h5.754c.354 0 .692-.143.94-.396.24-.272.367-.613.335-.979-.891-10.568-7.912-15.493-22.112-15.493-12.631 0-20.166 5.334-20.166 14.275 0 9.698 7.497 12.378 19.622 13.577 14.505 1.422 15.633 3.542 15.633 6.395 0 4.955-3.978 7.066-13.309 7.066z"></path>
  </symbol>

  <symbol id="icon-react" viewBox="0 0 128 128">
    <path d="M107.3 45.2c-2.2-.8-4.5-1.6-6.9-2.3.6-2.4 1.1-4.8 1.5-7.1 2.1-13.2-.2-22.5-6.6-26.1-1.9-1.1-4-1.6-6.4-1.6-7 0-15.9 5.2-24.9 13.9-9-8.7-17.9-13.9-24.9-13.9-2.4 0-4.5.5-6.4 1.6-6.4 3.7-8.7 13-6.6 26.1.4 2.3.9 4.7 1.5 7.1-2.4.7-4.7 1.4-6.9 2.3-12.5 4.8-19.3 11.4-19.3 18.8s6.9 14 19.3 18.8c2.2.8 4.5 1.6 6.9 2.3-.6 2.4-1.1 4.8-1.5 7.1-2.1 13.2.2 22.5 6.6 26.1 1.9 1.1 4 1.6 6.4 1.6 7.1 0 16-5.2 24.9-13.9 9 8.7 17.9 13.9 24.9 13.9 2.4 0 4.5-.5 6.4-1.6 6.4-3.7 8.7-13 6.6-26.1-.4-2.3-.9-4.7-1.5-7.1 2.4-.7 4.7-1.4 6.9-2.3 12.5-4.8 19.3-11.4 19.3-18.8s-6.8-14-19.3-18.8zm-14.8-30.5c4.1 2.4 5.5 9.8 3.8 20.3-.3 2.1-.8 4.3-1.4 6.6-5.2-1.2-10.7-2-16.5-2.5-3.4-4.8-6.9-9.1-10.4-13 7.4-7.3 14.9-12.3 21-12.3 1.3 0 2.5.3 3.5.9zm-11.2 59.3c-1.8 3.2-3.9 6.4-6.1 9.6-3.7.3-7.4.4-11.2.4-3.9 0-7.6-.1-11.2-.4-2.2-3.2-4.2-6.4-6-9.6-1.9-3.3-3.7-6.7-5.3-10 1.6-3.3 3.4-6.7 5.3-10 1.8-3.2 3.9-6.4 6.1-9.6 3.7-.3 7.4-.4 11.2-.4 3.9 0 7.6.1 11.2.4 2.2 3.2 4.2 6.4 6 9.6 1.9 3.3 3.7 6.7 5.3 10-1.7 3.3-3.4 6.6-5.3 10zm8.3-3.3c1.5 3.5 2.7 6.9 3.8 10.3-3.4.8-7 1.4-10.8 1.9 1.2-1.9 2.5-3.9 3.6-6 1.2-2.1 2.3-4.2 3.4-6.2zm-25.6 27.1c-2.4-2.6-4.7-5.4-6.9-8.3 2.3.1 4.6.2 6.9.2 2.3 0 4.6-.1 6.9-.2-2.2 2.9-4.5 5.7-6.9 8.3zm-18.6-15c-3.8-.5-7.4-1.1-10.8-1.9 1.1-3.3 2.3-6.8 3.8-10.3 1.1 2 2.2 4.1 3.4 6.1 1.2 2.2 2.4 4.1 3.6 6.1zm-7-25.5c-1.5-3.5-2.7-6.9-3.8-10.3 3.4-.8 7-1.4 10.8-1.9-1.2 1.9-2.5 3.9-3.6 6-1.2 2.1-2.3 4.2-3.4 6.2zm25.6-27.1c2.4 2.6 4.7 5.4 6.9 8.3-2.3-.1-4.6-.2-6.9-.2-2.3 0-4.6.1-6.9.2 2.2-2.9 4.5-5.7 6.9-8.3zm22.2 21l-3.6-6c3.8.5 7.4 1.1 10.8 1.9-1.1 3.3-2.3 6.8-3.8 10.3-1.1-2.1-2.2-4.2-3.4-6.2zm-54.5-16.2c-1.7-10.5-.3-17.9 3.8-20.3 1-.6 2.2-.9 3.5-.9 6 0 13.5 4.9 21 12.3-3.5 3.8-7 8.2-10.4 13-5.8.5-11.3 1.4-16.5 2.5-.6-2.3-1-4.5-1.4-6.6zm-24.7 29c0-4.7 5.7-9.7 15.7-13.4 2-.8 4.2-1.5 6.4-2.1 1.6 5 3.6 10.3 6 15.6-2.4 5.3-4.5 10.5-6 15.5-13.8-4-22.1-10-22.1-15.6zm28.5 49.3c-4.1-2.4-5.5-9.8-3.8-20.3.3-2.1.8-4.3 1.4-6.6 5.2 1.2 10.7 2 16.5 2.5 3.4 4.8 6.9 9.1 10.4 13-7.4 7.3-14.9 12.3-21 12.3-1.3 0-2.5-.3-3.5-.9zm60.8-20.3c1.7 10.5.3 17.9-3.8 20.3-1 .6-2.2.9-3.5.9-6 0-13.5-4.9-21-12.3 3.5-3.8 7-8.2 10.4-13 5.8-.5 11.3-1.4 16.5-2.5.6 2.3 1 4.5 1.4 6.6zm9-15.6c-2 .8-4.2 1.5-6.4 2.1-1.6-5-3.6-10.3-6-15.6 2.4-5.3 4.5-10.5 6-15.5 13.8 4 22.1 10 22.1 15.6 0 4.7-5.8 9.7-15.7 13.4z"></path>
  </symbol>
  
  <symbol id="icon-typescript" viewBox="0 0 128 128">
    <path id="original-2" data-name="original" class="cls-2" d="M1.5,63.91v62.5h125V1.41H1.5Zm100.73-5a15.56,15.56,0,0,1,7.82,4.5,20.58,20.58,0,0,1,3,4c0,.16-5.4,3.81-8.69,5.85-.12.08-.6-.44-1.13-1.23a7.09,7.09,0,0,0-5.87-3.53c-3.79-.26-6.23,1.73-6.21,5a4.58,4.58,0,0,0,.54,2.34c.83,1.73,2.38,2.76,7.24,4.86,8.95,3.85,12.78,6.39,15.16,10,2.66,4,3.25,10.46,1.45,15.24-2,5.2-6.9,8.73-13.83,9.9a38.32,38.32,0,0,1-9.52-.1,23,23,0,0,1-12.72-6.63c-1.15-1.27-3.39-4.58-3.25-4.82a9.34,9.34,0,0,1,1.15-.73L82,101l3.59-2.08.75,1.11a16.78,16.78,0,0,0,4.74,4.54c4,2.1,9.46,1.81,12.16-.62a5.43,5.43,0,0,0,.69-6.92c-1-1.39-3-2.56-8.59-5-6.45-2.78-9.23-4.5-11.77-7.24a16.48,16.48,0,0,1-3.43-6.25,25,25,0,0,1-.22-8c1.33-6.23,6-10.58,12.82-11.87A31.66,31.66,0,0,1,102.23,58.93ZM72.89,64.15l0,5.12H56.66V115.5H45.15V69.26H28.88v-5A49.19,49.19,0,0,1,29,59.09C29.08,59,39,59,51,59L72.83,59Z"></path>
  </symbol>

  <symbol id="icon-css3" viewBox="0 0 128 128">
    <path d="M8.76 1l10.055 112.883 45.118 12.58 45.244-12.626 10.063-112.837h-110.48zm89.591 25.862l-3.347 37.605.01.203-.014.467v-.004l-2.378 26.294-.262 2.336-28.36 7.844v.001l-.022.019-28.311-7.888-1.917-21.739h13.883l.985 11.054 15.386 4.17-.004.008v-.002l15.443-4.229 1.632-18.001h-32.282999999999994l-.277-3.043-.631-7.129-.331-3.828h34.748999999999995l1.264-14h-52.926l-.277-3.041-.63-7.131-.332-3.828h69.281l-.331 3.862z"></path>
  </symbol>

  <symbol id="icon-docker" viewBox="0 0 128 128">
    <path d="M124.8 52.1c-4.3-2.5-10-2.8-14.8-1.4-.6-5.2-4-9.7-8-12.9l-1.6-1.3-1.4 1.6c-2.7 3.1-3.5 8.3-3.1 12.3.3 2.9 1.2 5.9 3 8.3-1.4.8-2.9 1.9-4.3 2.4-2.8 1-5.9 2-8.9 2h-6.7v-14.1h-13v-25h-15v12h-25v13h-13v14h-11.2l-.2 1.5c-.5 6.4.3 12.6 3 18.5l1.1 2.2.1.2c7.9 13.4 21.7 19 36.8 19 29.2 0 53.3-13.1 64.3-40.6 7.4.4 15-1.8 18.6-8.9l.9-1.8-1.6-1zm-96.8-13.1h10v11h-10v-11zm13.1 44.2c0 1.7-1.4 3.1-3.1 3.1-1.7 0-3.1-1.4-3.1-3.1 0-1.7 1.4-3.1 3.1-3.1 1.7.1 3.1 1.4 3.1 3.1zm-13.1-31.2h10v11h-10v-11zm-13 0h11v11h-11v-11zm27.7 50.2c-15.8-.1-24.3-5.4-31.3-12.4 2.1.1 4.1.2 5.9.2 1.6 0 3.2 0 4.7-.1 3.9-.2 7.3-.7 10.1-1.5 2.3 5.3 6.5 10.2 14 13.8h-3.4zm8.3-39.2h-11v-11h11v11zm0-13h-11v-11h11v11zm13 13h-11v-11h11v11zm0-13h-11v-11h11v11zm0-13h-11v-11h11v11zm13 26h-11v-11h11v11zM38.8 81.2c-.2-.1-.5-.2-.8-.2-1.2 0-2.2 1-2.2 2.2 0 1.2 1 2.2 2.2 2.2s2.2-1 2.2-2.2c0-.3-.1-.6-.2-.8-.2.3-.4.5-.8.5-.5 0-.9-.4-.9-.9.1-.4.3-.7.5-.8z"></path>
  </symbol>


 <symbol id="icon-github" viewBox="0 0 128 128">
    <path fill-rule="evenodd" clip-rule="evenodd" d="M64 5.103c-33.347 0-60.388 27.035-60.388 60.388 0 26.682 17.303 49.317 41.297 57.303 3.017.56 4.125-1.31 4.125-2.905 0-1.44-.056-6.197-.082-11.243-16.8 3.653-20.345-7.125-20.345-7.125-2.747-6.98-6.705-8.836-6.705-8.836-5.48-3.748.413-3.67.413-3.67 6.063.425 9.257 6.223 9.257 6.223 5.386 9.23 14.127 6.562 17.573 5.02.542-3.903 2.107-6.568 3.834-8.076-13.413-1.525-27.514-6.704-27.514-29.843 0-6.593 2.36-11.98 6.223-16.21-.628-1.52-2.695-7.662.584-15.98 0 0 5.07-1.623 16.61 6.19C53.7 35 58.867 34.327 64 34.304c5.13.023 10.3.694 15.127 2.033 11.526-7.813 16.59-6.19 16.59-6.19 3.287 8.317 1.22 14.46.593 15.98 3.872 4.23 6.215 9.617 6.215 16.21 0 23.194-14.127 28.3-27.574 29.796 2.167 1.874 4.097 5.55 4.097 11.183 0 8.08-.07 14.583-.07 16.572 0 1.607 1.088 3.49 4.148 2.897 23.98-7.994 41.263-30.622 41.263-57.294C124.388 32.14 97.35 5.104 64 5.104z"></path><path d="M26.484 91.806c-.133.3-.605.39-1.035.185-.44-.196-.685-.605-.543-.906.13-.31.603-.395 1.04-.188.44.197.69.61.537.91zm-.743-.55M28.93 94.535c-.287.267-.85.143-1.232-.28-.396-.42-.47-.983-.177-1.254.298-.266.844-.14 1.24.28.394.426.472.984.17 1.255zm-.575-.618M31.312 98.012c-.37.258-.976.017-1.35-.52-.37-.538-.37-1.183.01-1.44.373-.258.97-.025 1.35.507.368.545.368 1.19-.01 1.452zm0 0M34.573 101.373c-.33.365-1.036.267-1.552-.23-.527-.487-.674-1.18-.343-1.544.336-.366 1.045-.264 1.564.23.527.486.686 1.18.333 1.543zm0 0M39.073 103.324c-.147.473-.825.688-1.51.486-.683-.207-1.13-.76-.99-1.238.14-.477.823-.7 1.512-.485.683.206 1.13.756.988 1.237zm0 0M44.016 103.685c.017.498-.563.91-1.28.92-.723.017-1.308-.387-1.315-.877 0-.503.568-.91 1.29-.924.717-.013 1.306.387 1.306.88zm0 0M48.614 102.903c.086.485-.413.984-1.126 1.117-.7.13-1.35-.172-1.44-.653-.086-.498.422-.997 1.122-1.126.714-.123 1.354.17 1.444.663zm0 0"></path>
  </symbol>


  <symbol id="icon-html5" viewBox="0 0 128 128">
    <path  d="M9.032 2l10.005 112.093 44.896 12.401 45.02-12.387 10.015-112.107h-109.936zm89.126 26.539l-.627 7.172-.276 3.289h-52.665000000000006l1.257 14h50.156000000000006l-.336 3.471-3.233 36.119-.238 2.27-28.196 7.749v.002l-.034.018-28.177-7.423-1.913-21.206h13.815000000000001l.979 10.919 15.287 4.081h.043v-.546l15.355-3.875 1.604-17.579h-47.698l-3.383-38.117-.329-3.883h68.939l-.33 3.539z"></path>
  </symbol>


  <symbol id="icon-javascript" viewBox="0 0 128 128">
    <path d="M2 1v125h125v-125h-125zm66.119 106.513c-1.845 3.749-5.367 6.212-9.448 7.401-6.271 1.44-12.269.619-16.731-2.059-2.986-1.832-5.318-4.652-6.901-7.901l9.52-5.83c.083.035.333.487.667 1.071 1.214 2.034 2.261 3.474 4.319 4.485 2.022.69 6.461 1.131 8.175-2.427 1.047-1.81.714-7.628.714-14.065-.001-10.115.046-20.188.046-30.188h11.709c0 11 .06 21.418 0 32.152.025 6.58.596 12.446-2.07 17.361zm48.574-3.308c-4.07 13.922-26.762 14.374-35.83 5.176-1.916-2.165-3.117-3.296-4.26-5.795 4.819-2.772 4.819-2.772 9.508-5.485 2.547 3.915 4.902 6.068 9.139 6.949 5.748.702 11.531-1.273 10.234-7.378-1.333-4.986-11.77-6.199-18.873-11.531-7.211-4.843-8.901-16.611-2.975-23.335 1.975-2.487 5.343-4.343 8.877-5.235l3.688-.477c7.081-.143 11.507 1.727 14.756 5.355.904.916 1.642 1.904 3.022 4.045-3.772 2.404-3.76 2.381-9.163 5.879-1.154-2.486-3.069-4.046-5.093-4.724-3.142-.952-7.104.083-7.926 3.403-.285 1.023-.226 1.975.227 3.665 1.273 2.903 5.545 4.165 9.377 5.926 11.031 4.474 14.756 9.271 15.672 14.981.882 4.916-.213 8.105-.38 8.581z"></path>
  </symbol>


  <symbol id="icon-postgresQl" viewBox="0 0 128 128">
    <path fill-rule="evenodd" clip-rule="evenodd"  d="M123.258 76.784c-.45-2.918-2.901-4.829-5.752-4.958-1.032-.047-2.08.061-3.109.192-1.243.158-2.471.438-3.711.623-.857.128-1.726.187-2.582.275l-.021-.111c1.598-3.018 3.263-6.003 4.775-9.064 1.159-2.348 2.151-4.781 3.176-7.194 1.696-3.998 3.051-8.12 4.173-12.309 1.075-4.011 1.995-8.066 2.284-12.227.116-1.662.196-3.331.187-4.995-.008-1.327-.151-2.656-.284-3.979-.15-1.516-.608-2.953-1.242-4.336-.836-1.822-2.132-3.317-3.496-4.737-1.092-1.137-2.293-2.173-3.484-3.208-1.698-1.477-3.607-2.656-5.59-3.703-2.253-1.19-4.621-2.121-7.09-2.75-1.493-.381-3.02-.664-4.532-.966-.544-.11-1.089-.337-1.633-.337h-10.241c-.37 0-.737.191-1.11.233-2.452.273-4.875.735-7.228 1.464-.88.273-1.684.101-2.52.024-.641-.059-1.271-.231-1.912-.263-2.442-.122-4.887-.301-7.328-.275-2.339.024-4.654.409-6.918 1.052-1.895.538-3.749 1.195-5.447 2.191-.727.426-1.303.346-2.055.129-2.527-.729-5.072-1.414-7.639-1.989-1.6-.358-3.245-.536-4.879-.707-1.566-.163-3.144-.261-4.718-.294-1.538-.033-3.087-.032-4.618.104-2.439.217-4.832.713-7.158 1.513-2.583.888-4.951 2.175-7.086 3.865-2.167 1.715-3.905 3.809-5.303 6.2-1.473 2.523-2.483 5.224-3.111 8.061-.34 1.537-.555 3.117-.788 4.678-.073.486.732.972-.268 1.456v6.794c1 .452.208.903.266 1.356.139 1.089.262 2.187.446 3.268.291 1.711.636 3.417.988 5.117.491 2.375 1.002 4.748 1.546 7.111.396 1.72.847 3.43 1.319 5.131.721 2.598 1.431 5.201 2.246 7.77.757 2.387 1.624 4.74 2.484 7.093 1.191 3.255 2.617 6.405 4.327 9.424 1.479 2.614 3.169 5.062 5.436 7.076 1.494 1.327 3.157 2.347 5.093 2.857 1.521.4 3.067.448 4.624.129 1.805-.37 3.403-1.147 4.824-2.311.163-.134.342-.236.535.01.735.931 1.719 1.552 2.748 2.089 2.777 1.448 5.803 1.882 8.877 2.059.744.043 1.496-.064 2.246-.085 1.461-.04 2.881-.325 4.278-.729.732-.212 1.447-.481 2.192-.732.039.793.089 1.557.112 2.321l.104 4.166c.019.634.044 1.27.103 1.901.151 1.627.299 3.255.493 4.877.135 1.118.275 2.245.538 3.336.529 2.203 1.246 4.348 2.158 6.428.895 2.041 2.182 3.764 3.9 5.185 2.22 1.836 4.822 2.619 7.632 2.764 1.162.061 2.357.004 3.501-.204 1.813-.329 3.622-.743 5.387-1.275 3.591-1.084 6.695-2.956 9.014-5.981 1.32-1.724 2.404-3.589 3.1-5.648.574-1.701 1.115-3.419 1.545-5.16.34-1.372.508-2.787.715-4.188.137-.927.219-1.863.305-2.797.14-1.517.283-3.033.384-4.553.07-1.058.067-2.121.109-3.181.013-.323.065-.644.095-.966.028-.298.178-.401.482-.396 1.071.016 2.144.044 3.212-.004 1.197-.054 2.405-.105 3.583-.303 1.677-.281 3.346-.636 4.99-1.067 1.943-.508 3.725-1.418 5.44-2.455 1.998-1.207 3.819-2.623 5.297-4.447 1.285-1.591 1.894-3.43 1.584-5.438zm-3.412.982c-.066.915-.485 1.699-1.093 2.369-2.869 3.163-6.468 5.082-10.585 6.027-1.564.358-3.178.544-4.779.692-1.363.126-2.746.147-4.114.097-1.006-.038-2.004-.268-3.032-.416-.103.94-.201 1.919-.32 2.896l-.479 3.745c-.145 1.187-.258 2.378-.407 3.564-.146 1.151-.328 2.298-.481 3.449-.143 1.072-.248 2.149-.407 3.219-.245 1.64-.479 3.284-.799 4.911-.384 1.945-.973 3.829-1.934 5.583-1.172 2.141-2.834 3.772-4.949 4.98-2.18 1.246-4.563 1.894-6.979 2.436-1.71.384-3.472.447-5.204.291-3.004-.272-5.568-1.557-7.506-3.886-1.85-2.223-3.102-4.771-3.55-7.655-.214-1.371-.368-2.754-.491-4.136-.136-1.537-.229-3.079-.299-4.62-.089-1.957-.154-3.914-.197-5.871-.053-2.406-.07-4.812-.104-7.218l-.006-.092c-1.224.734-2.427 1.538-3.703 2.2-1.494.776-3.117 1.226-4.798 1.353-1.318.1-2.653.191-3.965.086-2.151-.173-4.3-.51-6.226-1.569-.781-.43-1.596-.953-2.134-1.64-1.29-1.646-.672-3.726 1.273-4.727 1.344-.693 2.811-.982 4.268-1.319 1.266-.293 2.526-.626 3.761-1.029 1.222-.4 1.993-1.391 2.754-2.363l1.206-1.551c-.503-.053-.977-.107-1.451-.151-1.439-.136-2.812-.532-4.125-1.114-1.124-.497-1.141-.551-1.965.343-1.376 1.494-2.714 3.023-4.062 4.542-.992 1.117-1.978 2.241-2.965 3.361-.978 1.108-1.894 2.279-2.947 3.31-1.564 1.531-3.449 2.452-5.698 2.348-1.443-.066-2.764-.572-3.952-1.399-2.452-1.708-4.104-4.097-5.608-6.606-1.927-3.215-3.406-6.64-4.672-10.159-.876-2.432-1.756-4.866-2.521-7.333-.831-2.681-1.56-5.396-2.277-8.11-.542-2.048-1.023-4.113-1.482-6.182-.521-2.353-1.022-4.71-1.464-7.079-.298-1.599-.471-3.221-.712-4.831-.325-2.17-.385-4.36-.267-6.539.105-1.963.387-3.921.667-5.871.388-2.698 1.277-5.244 2.556-7.648.783-1.473 1.755-2.812 2.879-4.056 1.845-2.042 4.078-3.518 6.562-4.626 1.736-.774 3.57-1.24 5.439-1.604 2.774-.54 5.573-.519 8.373-.461 1.224.025 2.443.248 3.666.369 2.633.262 5.214.816 7.762 1.5 1.857.498 3.676 1.143 5.518 1.703.185.056.456.051.607-.048 2.496-1.629 5.224-2.704 8.125-3.319 1.101-.233 2.237-.335 3.363-.407 1.369-.087 2.749-.167 4.115-.088 1.642.094 3.276.336 4.908.56.792.108 1.565.383 2.359.458.38.036.783-.242 1.185-.335 2.049-.473 4.089-1 6.156-1.374 1.539-.278 3.111-.409 4.676-.499 1.745-.1 3.503-.173 5.247-.089 2.205.106 4.394.42 6.555.923 2.677.623 5.245 1.528 7.686 2.784 1.824.938 3.558 2.026 5.119 3.364 1.023.878 2.07 1.745 2.994 2.723 1.14 1.206 2.303 2.413 3.018 3.958.538 1.165.922 2.371 1.028 3.647.132 1.586.292 3.178.277 4.766-.014 1.519-.221 3.037-.368 4.552-.334 3.454-1.085 6.833-1.997 10.167-.754 2.754-1.635 5.478-2.589 8.17-.879 2.481-1.893 4.917-2.918 7.343-.757 1.794-1.572 3.569-2.458 5.303-1.677 3.286-3.421 6.538-5.438 9.633-.348.535-.678 1.083-1.018 1.629.88.594 1.877.803 2.881.911.955.104 1.929.166 2.883.095 1.527-.113 3.049-.331 4.567-.544 1.504-.21 2.978-.638 4.522-.525 1.542.112 2.645 1.284 2.54 2.729zM97.833 74.413c-.655-.846-1.323-1.682-1.964-2.538-1.006-1.344-1.729-2.845-2.455-4.353-.688-1.429-1.532-2.782-2.257-4.195-1.265-2.465-2.553-4.922-3.718-7.435-1.465-3.157-2.62-6.426-2.984-9.923-.154-1.48-.193-2.958.106-4.424.479-2.341 1.702-4.172 3.758-5.428 1.907-1.165 4.032-1.541 6.209-1.659 1.351-.073 2.708-.013 4.11-.013l-.047-.237c-.872-1.823-1.687-3.677-2.641-5.457-1.346-2.512-3.068-4.777-4.986-6.877-1.421-1.555-2.96-2.998-4.646-4.273-1.658-1.255-3.405-2.376-5.269-3.293-2.223-1.093-4.538-1.938-6.967-2.477-2.334-.518-4.683-.835-7.077-.861-2.042-.022-4.071.07-6.06.531-3.002.695-5.748 1.931-8.137 3.933-1.334 1.118-2.498 2.373-3.517 3.77-1.196 1.643-2.161 3.417-2.986 5.277-1.132 2.552-1.909 5.208-2.44 7.938-.266 1.361-.474 2.734-.686 4.106-.074.48-.08.971-.123 1.521.369-.192.635-.34.907-.472l.885-.397c2.993-1.369 6.094-2.25 9.427-2.149 1.416.043 2.771.323 4.03.943 2.415 1.191 3.828 3.216 4.442 5.779.424 1.769.714 3.573.996 5.372.221 1.405.447 2.825.473 4.242.037 2.071-.068 4.146-.181 6.216-.096 1.764-.464 3.5-1.08 5.146-1.12 2.993-2.368 5.937-3.534 8.913-.385.983-.681 2.001-1.045 3.082.562 0 1.018-.004 1.474.002.178.003.36.008.532.049 1.34.316 2.502.923 3.455 1.954 1.271 1.372 1.938 2.973 1.972 4.826.019 1.027-.089 2.057-.084 3.084.021 4.786.057 9.572.097 14.357.007.782.046 1.565.102 2.346.117 1.635.235 3.271.395 4.902.112 1.157.268 2.312.451 3.461.259 1.628 1 3.077 1.841 4.462.724 1.191 1.665 2.203 2.905 2.901 2.107 1.186 4.376 1.285 6.663.848 1.545-.295 3.062-.769 4.562-1.258 1.479-.481 2.815-1.269 3.937-2.354 1.051-1.019 1.797-2.261 2.3-3.632.976-2.659 1.28-5.459 1.684-8.237.151-1.04.282-2.083.42-3.125.157-1.186.316-2.371.468-3.556.112-.883.214-1.768.322-2.651.154-1.268.317-2.535.464-3.804.113-.981.209-1.966.309-2.949.129-1.256.268-2.512.379-3.77.086-.955.051-1.927.22-2.864.311-1.718 1.123-3.18 2.646-4.125.637-.395 1.356-.655 2.063-.989l-.12-.186zM40.236 67.361c-.761-1.802-1.218-3.68-1.354-5.622-.128-1.825.089-3.643.276-5.46.182-1.76.333-3.528.386-5.296.088-2.906-.108-5.808-.247-8.712-.084-1.729.117-3.479.271-5.212.139-1.561.312-3.126.607-4.664.495-2.581 1.152-5.125 2.086-7.591.887-2.338 1.906-4.615 3.345-6.665.986-1.406 2.105-2.72 3.18-4.094l-.319-.113c-3.498-1.111-7.053-1.979-10.709-2.358-1.729-.179-3.464-.284-5.198-.387-.532-.032-1.072.04-1.606.091-1.322.126-2.66.176-3.961.424-2.214.421-4.338 1.129-6.305 2.282-1.766 1.035-3.249 2.373-4.491 3.978-1.372 1.772-2.295 3.776-2.958 5.913-.783 2.521-1.156 5.115-1.257 7.733-.088 2.295-.132 4.603.264 6.889.295 1.702.492 3.422.817 5.117.443 2.311.918 4.617 1.467 6.904.785 3.274 1.569 6.553 2.499 9.787.89 3.099 1.894 6.17 2.982 9.204.89 2.476 1.919 4.906 3.003 7.304.706 1.562 1.561 3.065 2.457 4.528.953 1.553 2.037 3.027 3.508 4.154 1.856 1.423 3.293 1.644 5.179.083.808-.669 1.491-1.495 2.194-2.282 1.117-1.25 2.195-2.534 3.307-3.788 1.416-1.598 2.85-3.179 4.273-4.769.301-.336.59-.682.883-1.022l-.484-.425c-1.769-1.699-3.139-3.669-4.095-5.931zM93.924 19.792c1.156 1.356 2.275 2.752 3.309 4.204 2 2.809 3.598 5.842 4.775 9.087.521 1.43.937 2.874.751 4.439-.129 1.096-.118 2.208-.215 3.31-.081.917-.226 1.829-.345 2.743-.178 1.378-.436 2.752-.513 4.136-.073 1.317.003 2.648.086 3.968.084 1.341.265 2.676.388 4.015.139 1.518.326 3.036.369 4.557.035 1.249-.076 2.506-.185 3.753-.13 1.502-.511 2.956-1.079 4.351-.399.982-.876 1.934-1.327 2.917l.181.192.275.213.277-.496c2.339-3.688 4.42-7.518 6.222-11.493 1.159-2.56 2.245-5.156 3.287-7.766 1.624-4.064 2.909-8.242 3.903-12.503.446-1.913.787-3.855 1.09-5.797.236-1.518.433-3.054.477-4.586.047-1.625-.043-3.263-.193-4.884-.112-1.224-.414-2.456-1.181-3.451-1.233-1.602-2.564-3.134-4.201-4.346-1.378-1.021-2.751-2.068-4.23-2.927-2.345-1.36-4.883-2.266-7.535-2.883-2.588-.603-5.21-.863-7.849-.918-1.556-.033-3.119.134-4.672.28-1.407.132-2.805.357-4.222.543 1.52.855 3.019 1.615 4.433 2.511 2.973 1.883 5.637 4.149 7.924 6.831zM55.299 72.514c.961-3.073 2.27-6.007 3.538-8.959 1.028-2.394 1.59-4.916 1.777-7.506.093-1.277.067-2.57.004-3.851-.071-1.423-.185-2.85-.392-4.259-.266-1.801-.569-3.603-.995-5.371-.462-1.913-1.627-3.245-3.623-3.736-1.216-.299-2.424-.287-3.653-.093-3.002.473-5.75 1.579-8.31 3.199-.515.326-.798.589-.709 1.328.188 1.565.229 3.155.222 4.735-.01 2.236-.105 4.472-.19 6.707-.028.728-.133 1.452-.211 2.177-.12 1.11-.351 2.219-.344 3.327.007 1.142.124 2.311.401 3.417.88 3.507 2.744 6.377 5.799 8.402 1.879 1.245 3.958 1.873 6.24 1.992.155-.524.293-1.019.446-1.509zm-3.586-30.087c-.402-.844-.172-1.543.76-1.867.227-.08.461-.165.697-.188.324-.032.654-.008.982-.008 1.182.006 2.319.171 3.295.923.626.482.794 1.122.389 1.779-.575.932-1.452 1.4-2.529 1.49-1.697.141-2.888-.65-3.594-2.129zM98.753 42.119c.136-1.124.245-2.251.384-3.375.056-.452-.182-.574-.561-.585-1.192-.033-2.384-.075-3.576-.097-1.344-.024-2.652.192-3.896.703-1.38.568-2.431 1.478-2.86 2.98-.32 1.12-.406 2.239-.293 3.41.172 1.785.568 3.517 1.193 5.176.834 2.221 1.707 4.441 2.75 6.569 1.413 2.881 3.012 5.67 4.513 8.507.401.757.738 1.547 1.156 2.431.875-1.853 1.302-3.708 1.351-5.622.041-1.61-.088-3.227-.182-4.838-.059-.986-.198-1.966-.294-2.95-.134-1.371-.337-2.741-.368-4.115-.031-1.397.068-2.802.188-4.197.113-1.338.334-2.665.495-3.997zm-2.689-1.082c-.443 1.223-1.39 1.913-2.618 2.116-1.145.188-2.148-.235-2.894-1.148-.531-.65-.328-1.42.468-1.859.914-.506 1.919-.634 3.104-.711.322.059.807.108 1.268.24.669.189.916.692.672 1.362zM60.642 78.697c-.655-.535-1.521-.566-2.144.021-.773.73-1.453 1.565-2.133 2.388-.785.951-1.521 1.94-2.534 2.677-1.474 1.071-3.192 1.515-4.919 1.935-1.373.334-2.752.644-4.129.965l-.017.178c.409.189.805.425 1.231.56 2.1.665 4.236.996 6.455.808 1.602-.136 3.128-.485 4.574-1.171 1.99-.943 3.521-2.437 4.823-4.175.218-.29.317-.719.343-1.093.089-1.321-.582-2.303-1.55-3.093zM112.393 79.223c-1.69.181-3.382.373-5.077.47-.818.047-1.648-.109-2.474-.176-1.385-.112-2.737-.42-3.908-1.16-.678-.427-1.241-.475-1.961-.233-1.028.346-1.867.872-2.115 1.986-.169.753-.23 1.533-.298 2.304-.013.136.157.386.287.42.793.209 1.59.456 2.401.529.996.09 2.01.061 3.013.011 1.083-.054 2.173-.124 3.24-.304 2.515-.422 4.948-1.11 7.109-2.536.779-.515 1.551-1.041 2.325-1.562l-.064-.11c-.826.123-1.648.273-2.478.361z"></path>
  </symbol>

  <symbol id="icon-slack" viewBox="0 0 128 128">
    <path class="cls-1" d="M120.91,47.51C108.1,6.27,89.61-3.35,46.93,9S-5.72,39.26,7.09,80.49s31.3,50.85,74,38.48S133.72,88.74,120.91,47.51ZM99.32,74.27l-8,2.6,2.79,8A6.17,6.17,0,0,1,90,92.8a6.63,6.63,0,0,1-2.21.32,6.42,6.42,0,0,1-5.94-4.24l-2.79-8L62.47,86.2l2.79,8a6.17,6.17,0,0,1-4.06,7.87,6.63,6.63,0,0,1-2.21.32A6.42,6.42,0,0,1,53,98.19l-2.79-8-8,2.6a6.64,6.64,0,0,1-2.21.32,6.42,6.42,0,0,1-5.94-4.24A6.17,6.17,0,0,1,38.12,81l8-2.6L40.82,62.92l-8,2.6a6.63,6.63,0,0,1-2.21.32,6.42,6.42,0,0,1-5.94-4.24,6.17,6.17,0,0,1,4.06-7.87l8-2.6-2.79-8A6.17,6.17,0,0,1,38,35.2a6.49,6.49,0,0,1,8.15,3.92l2.79,8,16.6-5.37-2.79-8a6.17,6.17,0,0,1,4.06-7.87A6.49,6.49,0,0,1,75,29.81l2.79,8,8-2.6a6.49,6.49,0,0,1,8.15,3.92A6.17,6.17,0,0,1,89.88,47l-8,2.6,5.35,15.43,8-2.6a6.49,6.49,0,0,1,8.15,3.92A6.17,6.17,0,0,1,99.32,74.27Z"></path>
  </symbol>

  <symbol id="icon-redux" viewBox="0 0 100 100">
    <path d="M65.6 65.4c2.9-.3 5.1-2.8 5-5.8-.1-3-2.6-5.4-5.6-5.4h-.2c-3.1.1-5.5 2.7-5.4 5.8.1 1.5.7 2.8 1.6 3.7-3.4 6.7-8.6 11.6-16.4 15.7-5.3 2.8-10.8 3.8-16.3 3.1-4.5-.6-8-2.6-10.2-5.9-3.2-4.9-3.5-10.2-.8-15.5 1.9-3.8 4.9-6.6 6.8-8-.4-1.3-1-3.5-1.3-5.1-14.5 10.5-13 24.7-8.6 31.4 3.3 5 10 8.1 17.4 8.1 2 0 4-.2 6-.7 12.8-2.5 22.5-10.1 28-21.4z"/>
    <path d="M83.2 53c-7.6-8.9-18.8-13.8-31.6-13.8H50c-.9-1.8-2.8-3-4.9-3h-.2c-3.1.1-5.5 2.7-5.4 5.8.1 3 2.6 5.4 5.6 5.4h.2c2.2-.1 4.1-1.5 4.9-3.4H52c7.6 0 14.8 2.2 21.3 6.5 5 3.3 8.6 7.6 10.6 12.8 1.7 4.2 1.6 8.3-.2 11.8-2.8 5.3-7.5 8.2-13.7 8.2-4 0-7.8-1.2-9.8-2.1-1.1 1-3.1 2.6-4.5 3.6 4.3 2 8.7 3.1 12.9 3.1 9.6 0 16.7-5.3 19.4-10.6 2.9-5.8 2.7-15.8-4.8-24.3z"/>
    <path d="M32.4 67.1c.1 3 2.6 5.4 5.6 5.4h.2c3.1-.1 5.5-2.7 5.4-5.8-.1-3-2.6-5.4-5.6-5.4h-.2c-.2 0-.5 0-.7.1-4.1-6.8-5.8-14.2-5.2-22.2.4-6 2.4-11.2 5.9-15.5 2.9-3.7 8.5-5.5 12.3-5.6 10.6-.2 15.1 13 15.4 18.3 1.3.3 3.5 1 5 1.5-1.2-16.2-11.2-24.6-20.8-24.6-9 0-17.3 6.5-20.6 16.1-4.6 12.8-1.6 25.1 4 34.8-.5.7-.8 1.8-.7 2.9z"/>
  </symbol>


  <symbol id="icon-web" viewBox="0 0 15 15">
  	<path  d="M14.982,7C14.736,3.256,11.744,0.263,8,0.017V0H7.5H7v0.017C3.256,0.263,0.263,3.256,0.017,7H0v0.5
		V8h0.017C0.263,11.744,3.256,14.736,7,14.982V15h0.5H8v-0.018c3.744-0.246,6.736-3.238,6.982-6.982H15V7.5V7H14.982z M4.695,1.635
		C4.212,2.277,3.811,3.082,3.519,4H2.021C2.673,2.983,3.599,2.16,4.695,1.635z M1.498,5h1.758C3.122,5.632,3.037,6.303,3.01,7H1.019
		C1.072,6.296,1.238,5.623,1.498,5z M1.019,8H3.01c0.027,0.697,0.112,1.368,0.246,2H1.498C1.238,9.377,1.072,8.704,1.019,8z
		 M2.021,11h1.497c0.292,0.918,0.693,1.723,1.177,2.365C3.599,12.84,2.673,12.018,2.021,11z M7,13.936
		C5.972,13.661,5.087,12.557,4.55,11H7V13.936z M7,10H4.269C4.128,9.377,4.039,8.704,4.01,8H7V10z M7,7H4.01
		c0.029-0.704,0.118-1.377,0.259-2H7V7z M7,4H4.55C5.087,2.443,5.972,1.339,7,1.065V4z M12.979,4h-1.496
		c-0.293-0.918-0.693-1.723-1.178-2.365C11.4,2.16,12.327,2.983,12.979,4z M8,1.065C9.027,1.339,9.913,2.443,10.45,4H8V1.065z M8,5
		h2.73c0.142,0.623,0.229,1.296,0.26,2H8V5z M8,8h2.99c-0.029,0.704-0.118,1.377-0.26,2H8V8z M8,13.936V11h2.45
		C9.913,12.557,9.027,13.661,8,13.936z M10.305,13.365c0.483-0.643,0.885-1.447,1.178-2.365h1.496
		C12.327,12.018,11.4,12.84,10.305,13.365z M13.502,10h-1.758c0.134-0.632,0.219-1.303,0.246-2h1.99
		C13.928,8.704,13.762,9.377,13.502,10z M11.99,7c-0.027-0.697-0.112-1.368-0.246-2h1.758c0.26,0.623,0.426,1.296,0.479,2H11.99z"/>
  </symbol>

  <symbol id="icon-dislike" viewBox="0 0 381.2 381.2">
		<path d="M373.2,40.405h-0.08c-5.134-5.133-12.1-8.012-19.36-8h-47.52c-7.26-0.012-14.226,2.867-19.36,8
			c-5.129,5.137-8.007,12.101-8,19.36v168.4c0.022,15.146,12.294,27.418,27.44,27.44h47.48c7.259,0.007,14.223-2.871,19.36-8
			l0.4-0.44c4.904-5.093,7.643-11.889,7.64-18.96V59.765C381.212,52.505,378.333,45.539,373.2,40.405z M367.28,228.205
			c0.006,3.45-1.311,6.772-3.68,9.28l-0.28,0.28c-2.517,2.544-5.942,3.983-9.52,4h-47.56c-7.458-0.022-13.498-6.062-13.52-13.52
			V59.765c0.017-3.578,1.456-7.003,4-9.52c2.529-2.55,5.969-3.989,9.56-4h47.52c7.467,0,13.52,6.053,13.52,13.52L367.28,228.205z"/>
		<path d="M251.24,38.605c-3.988-3.992-9.398-6.236-15.04-6.24H107.64C48.274,32.563,0.198,80.639,0,140.005v8
			c0.219,59.35,48.29,107.403,107.64,107.6h21.76v46.32c0.006,25.913,21.017,46.916,46.93,46.91
			c25.905-0.005,46.904-21.005,46.91-46.91v-46.32h12.92c5.648-0.014,11.059-2.274,15.04-6.28c3.992-3.988,6.236-9.398,6.24-15.04
			v-180.6C257.457,48.035,255.227,42.609,251.24,38.605z M243.56,234.285c0.004,1.964-0.773,3.849-2.16,5.24
			c-1.391,1.387-3.276,2.164-5.24,2.16h-20c-3.844,0-6.96,3.116-6.96,6.96v53.28c0,18.225-14.775,33-33,33s-33-14.775-33-33v-53.28
			c0-3.844-3.116-6.96-6.96-6.96h-28.6c-51.703-0.154-93.584-42.017-93.76-93.72v-7.96c0.154-51.718,42.042-93.606,93.76-93.76
			h128.52c1.964-0.004,3.849,0.773,5.24,2.16c1.387,1.391,2.164,3.276,2.16,5.24V234.285z"/>
</symbol>

<symbol id="icon-like" viewBox="0 0 381.2 381.2">

		<path d="M94.32,133.655c-5.134-5.133-12.1-8.012-19.36-8h-47.6c-7.26-0.012-14.226,2.867-19.36,8
			c-5.129,5.137-8.007,12.101-8,19.36v168.4c0.022,15.146,12.294,27.418,27.44,27.44l-0.08-0.04h47.56
			c7.259,0.007,14.224-2.871,19.36-8l0.4-0.44c4.904-5.093,7.643-11.889,7.64-18.96v-168.4
			C102.332,145.755,99.453,138.789,94.32,133.655z M88.44,321.215c0.027,3.478-1.292,6.832-3.68,9.36l-0.28,0.28
			c-2.517,2.544-5.942,3.983-9.52,4h-47.6c-7.458-0.022-13.498-6.062-13.52-13.52v-168.52c0.017-3.578,1.456-7.003,4-9.52
			c2.529-2.55,5.969-3.989,9.56-4h47.52c7.467,0,13.52,6.053,13.52,13.52V321.215z"/>

		<path d="M273.52,125.575L273.52,125.575l-21.76,0v-46.32c-0.006-25.913-21.017-46.916-46.93-46.91
			c-25.905,0.005-46.904,21.005-46.91,46.91v46.32H145c-5.648,0.014-11.059,2.274-15.04,6.28c-3.992,3.988-6.236,9.398-6.24,15.04
			v180.6c-0.017,5.65,2.213,11.076,6.2,15.08c3.988,3.992,9.398,6.236,15.04,6.24h128.56c59.397-0.176,107.504-48.283,107.68-107.68
			v-8C380.958,173.785,332.87,125.75,273.52,125.575z M367.28,241.175c-0.154,51.718-42.042,93.606-93.76,93.76H145
			c-1.964,0.004-3.849-0.773-5.24-2.16c-1.387-1.391-2.164-3.276-2.16-5.24v-180.64c-0.004-1.964,0.773-3.849,2.16-5.24
			c1.391-1.387,3.276-2.164,5.24-2.16h20c3.844,0,6.96-3.116,6.96-6.96v-53.28c0-18.225,14.775-33,33-33s33,14.775,33,33v53.28
			c0,3.844,3.116,6.96,6.96,6.96h28.72c51.718,0.154,93.606,42.042,93.76,93.76L367.28,241.175z"/>

</symbol>
</svg>